HIERARCHY
ROOT Hips
{
	OFFSET 0.000000 0.000000 0.000000
	CHANNELS 6 Xposition Yposition Zposition Xrotation Yrotation Zrotation
	JOINT LeftUpLeg_virtual
	{
		OFFSET 0.000000 0.000000 0.000000
		CHANNELS 3 Xrotation Yrotation Zrotation
		JOINT LeftUpLeg
		{
			OFFSET 13.026900 -6.336304 -1.092800
			CHANNELS 3 Xrotation Yrotation Zrotation
			JOINT LeftLeg
			{
				OFFSET 0.524474 -46.096886 9.782700
				CHANNELS 3 Xrotation Yrotation Zrotation
				JOINT LeftFoot
				{
					OFFSET -0.524474 -53.427422 -12.948200
					CHANNELS 3 Xrotation Yrotation Zrotation
					JOINT LeftToeBase
					{
						OFFSET 0.192200 -14.009700 16.364100
						CHANNELS 3 Xrotation Yrotation Zrotation
						JOINT LeftToe_End
						{
							OFFSET -1.784700 -0.561700 9.474800
							CHANNELS 3 Xrotation Yrotation Zrotation
							End Site
							{
								OFFSET 0 0 0
							}
						}
					}
				}
			}
		}
	}
	JOINT RightUpLeg_virtual
	{
		OFFSET 0.000000 0.000000 0.000000
		CHANNELS 3 Xrotation Yrotation Zrotation
		JOINT RightUpLeg
		{
			OFFSET -12.883000 -6.336304 -1.092800
			CHANNELS 3 Xrotation Yrotation Zrotation
			JOINT RightLeg
			{
				OFFSET -0.524587 -46.096825 9.782800
				CHANNELS 3 Xrotation Yrotation Zrotation
				JOINT RightFoot
				{
					OFFSET 0.524587 -53.427383 -12.948300
					CHANNELS 3 Xrotation Yrotation Zrotation
					JOINT RightToeBase
					{
						OFFSET -0.192200 -14.009700 16.364100
						CHANNELS 3 Xrotation Yrotation Zrotation
						JOINT RightToe_End
						{
							OFFSET 1.784700 -0.561700 9.474800
							CHANNELS 3 Xrotation Yrotation Zrotation
							End Site
							{
								OFFSET 0 0 0
							}
						}
					}
				}
			}
		}
	}
	JOINT Spine_virtual
	{
		OFFSET 0.000000 0.000000 0.000000
		CHANNELS 3 Xrotation Yrotation Zrotation
		JOINT Spine
		{
			OFFSET 0.072000 7.257294 -0.789700
			CHANNELS 3 Xrotation Yrotation Zrotation
			JOINT Spine1
			{
				OFFSET 0.000000 12.508769 -0.658067
				CHANNELS 3 Xrotation Yrotation Zrotation
				JOINT Spine1_split
				{
					OFFSET 0.000000 12.508769 -0.658067
					CHANNELS 3 Xrotation Yrotation Zrotation
					JOINT Spine2
					{
						OFFSET 0.000000 12.508769 -0.658067
						CHANNELS 3 Xrotation Yrotation Zrotation
						JOINT Neck_virtual
						{
							OFFSET 0.000000 0.000000 0.000000
							CHANNELS 3 Xrotation Yrotation Zrotation
							JOINT Neck
							{
								OFFSET 0.000000 14.033295 7.520400
								CHANNELS 3 Xrotation Yrotation Zrotation
								JOINT Head
								{
									OFFSET 0.000000 8.198502 5.703100
									CHANNELS 3 Xrotation Yrotation Zrotation
									JOINT HeadTop_End
									{
										OFFSET 0.000000 17.760803 13.332701
										CHANNELS 3 Xrotation Yrotation Zrotation
										End Site
										{
											OFFSET 0 0 0
										}
									}
								}
							}
						}
						JOINT LeftShoulder_virtual
						{
							OFFSET 0.000000 0.000000 0.000000
							CHANNELS 3 Xrotation Yrotation Zrotation
							JOINT LeftShoulder
							{
								OFFSET 6.292450 5.785301 -0.669000
								CHANNELS 3 Xrotation Yrotation Zrotation
								JOINT LeftShoulder_split
								{
									OFFSET 6.292450 5.785301 -0.669000
									CHANNELS 3 Xrotation Yrotation Zrotation
									JOINT LeftArm
									{
										OFFSET 13.907140 -6.093903 1.965100
										CHANNELS 3 Xrotation Yrotation Zrotation
										JOINT LeftForeArm
										{
											OFFSET 34.140198 0.000000 0.000000
											CHANNELS 3 Xrotation Yrotation Zrotation
											JOINT LeftHand
											{
												OFFSET 40.960209 0.000000 0.000000
												CHANNELS 3 Xrotation Yrotation Zrotation
												End Site
												{
													OFFSET 0 0 0
												}
											}
										}
									}
								}
							}
						}
						JOINT RightShoulder_virtual
						{
							OFFSET 0.000000 0.000000 0.000000
							CHANNELS 3 Xrotation Yrotation Zrotation
							JOINT RightShoulder
							{
								OFFSET -6.292450 5.785301 -0.669000
								CHANNELS 3 Xrotation Yrotation Zrotation
								JOINT RightShoulder_split
								{
									OFFSET -6.292450 5.785301 -0.669000
									CHANNELS 3 Xrotation Yrotation Zrotation
									JOINT RightArm
									{
										OFFSET -13.907140 -6.093903 1.965100
										CHANNELS 3 Xrotation Yrotation Zrotation
										JOINT RightForeArm
										{
											OFFSET -34.140198 0.000000 0.000000
											CHANNELS 3 Xrotation Yrotation Zrotation
											JOINT RightHand
											{
												OFFSET -40.960209 0.000000 0.000000
												CHANNELS 3 Xrotation Yrotation Zrotation
												End Site
												{
													OFFSET 0 0 0
												}
											}
										}
									}
								}
							}
						}
					}
				}
			}
		}
	}
}
MOTION
Frames: 7
Frame Time: 0.03333333
0.274904 88.899994 0.680210 0.000000 0.000000 0.000000 11.654568 6.179923 -1.155271 -53.365986 2.158446 4.009443 69.864407 7.928513 0.024565 -23.488481 7.155736 -7.009119 -3.169522 -0.213111 0.226511 0.000000 0.000000 0.000000 11.996190 5.775677 -1.043441 -52.634722 -11.993051 -6.188836 72.873570 -7.065157 -4.574796 -25.736248 -9.052133 4.921672 1.310223 0.837861 -0.290401 0.000000 0.000000 0.000000 12.080743 2.982403 -0.865035 9.063700 1.267850 1.683353 8.836758 1.913981 -0.432072 0.905652 -0.870379 0.411640 0.000000 0.000000 0.000000 9.095470 0.847437 0.113746 -10.198432 -1.265931 5.984600 -25.729664 1.642422 -7.264325 0.000000 0.000000 0.000000 9.259582 0.533948 0.000596 3.347704 -24.499911 3.750239 -2.660217 0.409120 -3.369884 -62.542560 -24.875450 -65.029302 177.468081 -72.539765 175.789412 0.000000 0.000000 0.000000 8.364072 0.629464 0.236396 -0.012944 12.092674 10.968986 0.751069 7.003423 0.476027 -63.128474 31.605427 50.749545 -178.893555 70.196101 178.155198 0.000000 0.000000 0.000000 
0.269551 88.897789 0.678066 0.000000 0.000000 0.000000 11.636179 6.160420 -1.144362 -53.359521 2.177211 4.017267 69.885157 7.929121 0.029564 -23.489155 7.163324 -7.020552 -3.169769 -0.213129 0.222502 0.000000 0.000000 0.000000 11.978117 5.754240 -1.032821 -52.628916 -11.983365 -6.182981 72.875045 -7.054715 -4.581249 -25.746653 -9.053152 4.911399 1.309384 0.838254 -0.291060 0.000000 0.000000 0.000000 12.067431 2.967531 -0.858354 9.064384 1.252334 1.693031 8.855631 1.897721 -0.425870 0.903273 -0.867547 0.411092 0.000000 0.000000 0.000000 9.114502 0.828740 0.119584 -10.200257 -1.246334 5.968055 -25.743336 1.711508 -7.283870 0.000000 0.000000 0.000000 9.282749 0.517028 0.006228 3.347454 -24.508828 3.748864 -2.663600 0.425155 -3.348960 -62.562955 -24.821618 -65.047149 177.463082 -72.582658 175.800805 0.000000 0.000000 0.000000 8.387792 0.612401 0.241609 -0.019353 12.137099 10.940253 0.735225 6.988778 0.467091 -63.154764 31.568103 50.731152 -178.913035 70.256589 178.181850 0.000000 0.000000 0.000000 
0.265024 88.893562 0.676193 0.000000 0.000000 0.000000 11.613897 6.146909 -1.138292 -53.355980 2.192292 4.027441 69.910292 7.929379 0.035757 -23.488981 7.174111 -7.031573 -3.170699 -0.212650 0.217586 0.000000 0.000000 0.000000 11.958242 5.731685 -1.025594 -52.621891 -11.976598 -6.173081 72.880611 -7.047078 -4.586665 -25.755962 -9.053511 4.898789 1.308032 0.838692 -0.291551 0.000000 0.000000 0.000000 12.051261 2.949159 -0.852846 9.066584 1.240806 1.702654 8.871035 1.885579 -0.419773 0.894526 -0.857280 0.408855 0.000000 0.000000 0.000000 9.126125 0.813903 0.125275 -10.197970 -1.228151 5.954026 -25.746922 1.769370 -7.296910 0.000000 0.000000 0.000000 9.303024 0.502886 0.012391 3.346560 -24.512152 3.742549 -2.679971 0.429148 -3.337306 -62.600610 -24.760790 -65.049117 177.458533 -72.633331 175.810654 0.000000 0.000000 0.000000 8.406141 0.598313 0.247479 -0.025937 12.177265 10.913625 0.725020 6.979233 0.463746 -63.207930 31.510432 50.738675 -178.914866 70.316272 178.186658 0.000000 0.000000 0.000000 
0.260861 88.887016 0.676247 0.000000 0.000000 0.000000 11.588819 6.137621 -1.132963 -53.350953 2.203160 4.032920 69.934102 7.929828 0.043242 -23.490306 7.187388 -7.043238 -3.173304 -0.212177 0.213893 0.000000 0.000000 0.000000 11.935117 5.708393 -1.017691 -52.613340 -11.971804 -6.163141 72.893514 -7.041242 -4.591645 -25.763077 -9.052045 4.887648 1.305820 0.839250 -0.291902 0.000000 0.000000 0.000000 12.030804 2.926602 -0.843816 9.068690 1.232912 1.710092 8.881214 1.877509 -0.414116 0.881999 -0.847434 0.408278 0.000000 0.000000 0.000000 9.132622 0.804311 0.130346 -10.186057 -1.214203 5.940372 -25.746926 1.800897 -7.301283 0.000000 0.000000 0.000000 9.318661 0.492919 0.018951 3.344685 -24.506580 3.738072 -2.697636 0.416165 -3.340474 -62.641543 -24.711250 -65.027315 177.459735 -72.628161 175.820530 0.000000 0.000000 0.000000 8.417760 0.588618 0.253519 -0.032030 12.205998 10.884910 0.725262 6.982554 0.471781 -63.269914 31.444074 50.780896 -178.908869 70.321729 178.181085 0.000000 0.000000 0.000000 
0.256467 88.879227 0.680176 0.000000 0.000000 0.000000 11.562357 6.130604 -1.124541 -53.339635 2.211187 4.029188 69.952455 7.930408 0.052034 -23.494015 7.201708 -7.055970 -3.177435 -0.212110 0.212959 0.000000 0.000000 0.000000 11.909365 5.688204 -1.006271 -52.603965 -11.967856 -6.157132 72.914264 -7.035487 -4.597913 -25.768376 -9.048219 4.882766 1.303039 0.840006 -0.292051 0.000000 0.000000 0.000000 12.006351 2.903690 -0.830238 9.069588 1.227341 1.712923 8.886355 1.873131 -0.409705 0.875391 -0.838011 0.408382 0.000000 0.000000 0.000000 9.135431 0.800384 0.134777 -10.166328 -1.206641 5.925885 -25.749791 1.801839 -7.297196 0.000000 0.000000 0.000000 9.328525 0.487948 0.025536 3.343001 -24.495157 3.740210 -2.708119 0.395781 -3.353057 -62.666624 -24.684254 -64.979975 177.462166 -72.547373 175.823235 0.000000 0.000000 0.000000 8.422855 0.583421 0.258975 -0.036582 12.222255 10.854527 0.730498 6.990007 0.487381 -63.328189 31.387035 50.849956 -178.898910 70.263536 178.171263 0.000000 0.000000 0.000000 
0.251970 88.871002 0.686172 0.000000 0.000000 0.000000 11.537307 6.123002 -1.111465 -53.320025 2.217938 4.015273 69.964401 7.932126 0.061112 -23.499601 7.216253 -7.068537 -3.181165 -0.212571 0.214359 0.000000 0.000000 0.000000 11.882929 5.671980 -0.990730 -52.594581 -11.963295 -6.156389 72.940676 -7.029455 -4.606255 -25.773750 -9.042625 4.884827 1.300633 0.840902 -0.291961 0.000000 0.000000 0.000000 11.981007 2.885361 -0.813094 9.070151 1.222963 1.711115 8.887685 1.871532 -0.406895 0.875055 -0.830042 0.406564 0.000000 0.000000 0.000000 9.137161 0.801491 0.138231 -10.144035 -1.206082 5.913167 -25.762893 1.774737 -7.289401 0.000000 0.000000 0.000000 9.333176 0.487516 0.030476 3.341575 -24.484606 3.748565 -2.703607 0.382864 -3.368594 -62.666016 -24.676019 -64.914350 177.466975 -72.417279 175.819437 0.000000 0.000000 0.000000 8.423729 0.583271 0.263021 -0.040074 12.227479 10.823614 0.748793 7.002996 0.500815 -63.377482 31.352474 50.927407 -178.891479 70.178145 178.164159 0.000000 0.000000 0.000000 
0.246841 88.864281 0.693638 0.000000 0.000000 0.000000 11.515468 6.115261 -1.094691 -53.295403 2.224236 3.993740 69.970958 7.935676 0.069780 -23.505527 7.230694 -7.079649 -3.182685 -0.212979 0.216073 0.000000 0.000000 0.000000 11.859409 5.662998 -0.972872 -52.585941 -11.958728 -6.161150 72.969670 -7.024084 -4.616459 -25.781712 -9.036754 4.890888 1.299374 0.841912 -0.291267 0.000000 0.000000 0.000000 11.958077 2.874442 -0.795259 9.071231 1.219099 1.706009 8.886250 1.872107 -0.405724 0.883827 -0.827054 0.405880 0.000000 0.000000 0.000000 9.139072 0.805452 0.140315 -10.127716 -1.211780 5.904787 -25.787217 1.732218 -7.282230 0.000000 0.000000 0.000000 9.334792 0.490026 0.032647 3.340834 -24.477675 3.761862 -2.682227 0.383128 -3.378725 -62.652478 -24.677542 -64.847947 177.467794 -72.285880 175.807389 0.000000 0.000000 0.000000 8.423650 0.587154 0.264731 -0.042555 12.226821 10.797251 0.771157 7.012707 0.500582 -63.423415 31.351497 50.992789 -178.885182 70.118401 178.157111 0.000000 0.000000 0.000000 
